# xmcd CD database file
#
# Track frame offsets:
#	150
#	38577
#	71812
#	114930
#	128700
#	187347
#	227922
#	281545
#
# Disc length: 4143 seconds
#
# Revision: 0
# Processed by: cddbd v1.5.1PL0 Copyright (c) Steve Scherf et al.
# Submitted via: CDex 1.51
#
DISCID=71102d08
DTITLE=John Pisano, Billy Bean, Dennis Budimir - West Coast Sessions
DYEAR=1900
DGENRE=Jazz
TTITLE0=The Hippie
TTITLE1=My Old Flame
TTITLE2=Have you met Miss Jones
TTITLE3=Everytime We Say Goodbye
TTITLE4=Airegin
TTITLE5=Two Five Jive
TTITLE6=I Love You
TTITLE7=All the Things You Are
EXTD=
EXTT0=
EXTT1=
EXTT2=
EXTT3=
EXTT4=
EXTT5=
EXTT6=
EXTT7=
PLAYORDER=
